<?xml version="1.0" standalone="no"?><!DOCTYPE svg PUBLIC "-//W3C//DTD SVG 1.1//EN" "http://www.w3.org/Graphics/SVG/1.1/DTD/svg11.dtd"><svg class="icon" width="200px" height="200.00px" viewBox="0 0 1024 1024" version="1.1" xmlns="http://www.w3.org/2000/svg"><path fill="#bfbfbf" d="M206.847724 134.485837L283.306289 58.027272A34.133288 34.133288 0 0 0 258.730322 0.000683H34.133288C15.018647 0.000683 0 15.019329 0 34.13397v224.597034c0 30.719959 36.863951 45.738606 58.026589 23.893302l76.458565-76.458565 132.437157 132.437157c19.797307 19.797307 52.565263 19.797307 72.36257 0 19.797307-19.797307 19.797307-52.565263 0-72.36257L206.847724 134.485837zM757.076324 339.968229l132.437157-132.437156 76.458564 76.458564c21.162638 20.479973 58.026589 5.461326 58.02659-25.258633V34.13397c0-19.114641-15.018647-34.133288-34.133288-34.133287h-224.597034c-30.719959 0-45.738606 36.863951-23.893302 58.026589l76.458565 76.458565-132.437157 132.437156c-19.797307 19.797307-19.797307 52.565263 0 72.362571 19.114641 20.479973 51.199932 20.479973 71.679905 0.682665zM266.922311 684.031771l-132.437157 132.437156-76.458565-76.458564c-21.162638-20.479973-58.026589-5.461326-58.026589 25.258633v224.597034c0 19.114641 15.018647 34.133288 34.133288 34.133287h224.597034c30.719959 0 45.738606-36.863951 23.893301-58.026589l-76.458565-76.458565 132.437157-132.437156c19.797307-19.797307 19.797307-52.565263 0-72.362571-19.114641-20.479973-51.199932-20.479973-71.679904-0.682665zM965.972045 740.693028l-76.458564 76.458565-132.437157-132.437157a51.472998 51.472998 0 0 0-72.36257 0c-19.797307 19.797307-19.797307 52.565263 0 72.362571l132.437156 132.437156-76.458564 76.458565a34.133288 34.133288 0 0 0 24.575967 58.026589h224.597034c19.114641 0 34.133288-15.018647 34.133288-34.133287v-224.597034a34.133288 34.133288 0 0 0-58.02659-24.575968z"  /></svg>