<?xml version="1.0" standalone="no"?><!DOCTYPE svg PUBLIC "-//W3C//DTD SVG 1.1//EN" "http://www.w3.org/Graphics/SVG/1.1/DTD/svg11.dtd"><svg class="icon" width="200px" height="200.00px" viewBox="0 0 1024 1024" version="1.1" xmlns="http://www.w3.org/2000/svg"><path fill="#bfbfbf" d="M147.456 219.818667L71.68 296.277333c-21.845333 21.845333-6.144 58.026667 23.893333 58.026667h224.597334c19.114667 0 34.133333-15.018667 34.133333-34.133333V95.573333c0-30.72-36.864-45.738667-58.026667-23.893333L219.818667 147.456 87.381333 15.018667a51.473067 51.473067 0 0 0-72.362666 0c-19.797333 19.797333-19.797333 52.565333 0 72.362666l132.437333 132.437334zM936.618667 15.018667l-132.437334 132.437333-76.458666-76.458667a34.2016 34.2016 0 0 0-58.026667 24.576v224.597334c0 19.114667 15.018667 34.133333 34.133333 34.133333h224.597334c30.72 0 45.738667-36.864 23.893333-58.026667l-76.458667-76.458666 132.437334-132.437334c19.797333-19.797333 19.797333-52.565333 0-72.362666a50.653867 50.653867 0 0 0-71.68 0zM87.381333 1008.981333l132.437334-132.437333 76.458666 76.458667a34.133333 34.133333 0 0 0 58.026667-23.893334v-224.597333c0-19.114667-15.018667-34.133333-34.133333-34.133333H95.573333c-30.72 0-45.738667 36.864-23.893333 58.026666l76.458667 76.458667-132.437334 132.437333c-19.797333 19.797333-19.797333 52.565333 0 72.362667 19.114667 19.114667 51.882667 19.114667 71.68-0.682667zM727.722667 952.32l76.458666-76.458667 132.437334 132.437334c19.797333 19.797333 52.565333 19.797333 72.362666 0 19.797333-19.797333 19.797333-52.565333 0-72.362667l-132.437333-132.437333 76.458667-76.458667c21.845333-21.845333 6.144-58.026667-23.893334-58.026667h-224.597333c-19.114667 0-34.133333 15.018667-34.133333 34.133334v224.597333c-0.682667 30.72 35.498667 46.421333 57.344 24.576z"  /></svg>